HIERARCHY
ROOT Hips
{
	OFFSET 0.000000 0.000000 0.000000
	CHANNELS 6 Xposition Yposition Zposition Zrotation Xrotation Yrotation
	JOINT Spine
	{
		OFFSET -3.437117 15.703604 8.273344
		CHANNELS 3 Zrotation Xrotation Yrotation
		JOINT Chest
		{
			OFFSET -4.900135 15.320276 11.050729
			CHANNELS 3 Zrotation Xrotation Yrotation
			JOINT Neck
			{
				OFFSET -1.119888 7.581721 -6.345726
				CHANNELS 3 Zrotation Xrotation Yrotation
				JOINT Head
				{
					OFFSET -4.977465 6.752527 21.700776
					CHANNELS 3 Zrotation Xrotation Yrotation
					End Site
					{
						OFFSET 0.000000 -5.000000 0.000000
					}
				}
			}
			JOINT LeftShoulder
			{
				OFFSET 12.882547 1.888028 -2.331351
				CHANNELS 3 Zrotation Xrotation Yrotation
				JOINT LeftElbow
				{
					OFFSET 18.580696 -21.418223 -5.066691
					CHANNELS 3 Zrotation Xrotation Yrotation
					JOINT LeftWrist
					{
						OFFSET -1.744875 -25.913778 3.554617
						CHANNELS 3 Zrotation Xrotation Yrotation
						End Site
						{
							OFFSET 0.000000 -5.000000 0.000000
						}
					}
				}
			}
			JOINT RightShoulder
			{
				OFFSET -12.949517 -3.848804 -5.904585
				CHANNELS 3 Zrotation Xrotation Yrotation
				JOINT RightElbow
				{
					OFFSET -9.059105 -28.603331 -5.543518
					CHANNELS 3 Zrotation Xrotation Yrotation
					JOINT RightWrist
					{
						OFFSET 1.240234 -23.779691 6.576470
						CHANNELS 3 Zrotation Xrotation Yrotation
						End Site
						{
							OFFSET 0.000000 -5.000000 0.000000
						}
					}
				}
			}
		}
	}
	JOINT LeftHip
	{
		OFFSET 6.573718 -2.911238 7.731826
		CHANNELS 3 Zrotation Xrotation Yrotation
		JOINT LeftKnee
		{
			OFFSET 8.129577 -50.507865 -0.718189
			CHANNELS 3 Zrotation Xrotation Yrotation
			JOINT LeftAnkle
			{
				OFFSET 4.576934 -15.277524 -29.794586
				CHANNELS 3 Zrotation Xrotation Yrotation
				JOINT LeftToe
				{
					OFFSET 4.029998 -10.703194 11.412992
					CHANNELS 3 Zrotation Xrotation Yrotation
					End Site
					{
						OFFSET 0.000000 -5.000000 0.000000
					}
				}
			}
		}
	}
	JOINT RightHip
	{
		OFFSET -9.153689 -0.428160 6.279539
		CHANNELS 3 Zrotation Xrotation Yrotation
		JOINT RightKnee
		{
			OFFSET -11.655136 -39.831184 14.584667
			CHANNELS 3 Zrotation Xrotation Yrotation
			JOINT RightAnkle
			{
				OFFSET 5.741683 -35.106240 -16.860678
				CHANNELS 3 Zrotation Xrotation Yrotation
				JOINT RightToe
				{
					OFFSET -3.687692 -3.850819 20.609998
					CHANNELS 3 Zrotation Xrotation Yrotation
					End Site
					{
						OFFSET 0.000000 -5.000000 0.000000
					}
				}
			}
		}
	}
}
MOTION
Frames: 12
Frame Time: 0.008333
2.872500 99.071831 -17.679054 -12.650370 -27.129385 4.089707 -2.610648 -1.177667 1.501896 -2.745839 27.083500 3.068284 -4.340776 -22.543040 -11.254576 -0.000000 0.000000 0.000000 -1.498654 -8.057008 -6.938212 5.000000 0.000000 1.573623 -0.000000 0.000000 0.000000 12.753482 2.501890 -3.667194 -4.774466 0.000000 -2.544670 -0.000000 0.000000 0.000000 15.540890 27.093308 0.442823 -5.000000 -0.000000 -5.000000 -11.806395 20.000000 1.229778 -0.000000 0.000000 0.000000 21.286384 40.915398 -15.559846 -5.000000 0.000000 -1.909798 3.452124 17.523262 7.077829 -0.000000 0.000000 0.000000
2.776761 99.085982 -17.723371 -12.517908 -26.909749 4.135761 -2.563108 -1.136798 1.481185 -2.807050 27.018157 3.005808 -4.262584 -22.343381 -11.266152 -0.000000 0.000000 0.000000 -2.208082 -8.249052 -7.034481 5.000000 0.000000 1.380587 -0.000000 0.000000 0.000000 13.033271 2.389088 -3.683755 -3.877227 0.000000 -2.191879 -0.000000 0.000000 0.000000 15.449286 26.874620 0.460402 -5.000000 -0.000000 -5.000000 -11.813574 20.000000 1.280547 -0.000000 0.000000 0.000000 20.978615 40.690124 -15.377702 -5.000000 0.000000 -1.996812 3.455985 17.701336 6.358127 -0.000000 0.000000 0.000000
2.668986 99.104527 -17.770564 -12.384520 -26.671182 4.188404 -2.511235 -1.117045 1.450188 -2.862520 26.943386 2.945158 -4.182131 -22.140692 -11.287835 -0.000000 0.000000 0.000000 -2.785252 -8.355910 -7.068868 5.000000 0.000000 1.373033 -0.000000 0.000000 0.000000 13.252742 2.280955 -3.687729 -2.984824 0.000000 -1.837996 -0.000000 0.000000 0.000000 15.368564 26.625286 0.474078 -5.000000 -0.000000 -5.000000 -11.830418 20.000000 1.327592 -0.000000 0.000000 0.000000 20.703616 40.459344 -15.195922 -5.000000 0.000000 -2.087282 3.480719 18.029610 5.519643 -0.000000 0.000000 0.000000
2.546766 99.125414 -17.819921 -12.268822 -26.415041 4.200296 -2.461586 -1.095838 1.421294 -2.880987 26.835423 2.903567 -4.107297 -21.948997 -11.298299 -0.000000 0.000000 0.000000 -3.232272 -8.355997 -7.017827 5.000000 0.000000 1.510276 -0.000000 0.000000 0.000000 13.409302 2.186259 -3.682546 -2.107643 0.000000 -1.490763 -0.000000 0.000000 0.000000 15.317406 26.367466 0.479843 -5.000000 -0.000000 -5.000000 -11.846235 20.000000 1.396090 -0.000000 0.000000 0.000000 20.407646 40.212346 -15.004006 -5.000000 0.000000 -2.193561 3.545962 18.570602 4.856665 -0.000000 0.000000 0.000000
2.408557 99.143111 -17.873660 -12.169460 -26.121558 4.173791 -2.414659 -1.088779 1.389609 -2.873627 26.713007 2.877611 -4.046998 -21.796055 -11.312050 -0.000000 0.000000 0.000000 -3.468858 -8.310888 -6.947530 5.000000 0.000000 1.689247 -0.000000 0.000000 0.000000 13.503059 2.066187 -3.651204 -1.240358 0.000000 -1.146335 -0.000000 0.000000 0.000000 15.251040 26.074498 0.488125 -5.000000 -0.000000 -5.000000 -11.824647 20.000000 1.500178 -0.000000 0.000000 0.000000 20.121794 39.924446 -14.786415 -5.000000 0.000000 -2.289740 3.630722 19.194534 4.159595 -0.000000 0.000000 0.000000
2.256342 99.151306 -17.927344 -12.059127 -25.828260 4.132134 -2.378698 -1.077296 1.367377 -2.836595 26.644977 2.887848 -4.013463 -21.720508 -11.349619 -0.000000 0.000000 0.000000 -3.513981 -8.374573 -7.003178 5.000000 0.000000 1.820980 -0.000000 0.000000 0.000000 13.567625 1.880313 -3.583613 -0.475366 0.000000 -0.845043 -0.000000 0.000000 0.000000 15.126708 25.787325 0.510264 -5.000000 -0.000000 -5.000000 -11.747857 20.000000 1.632257 -0.000000 0.000000 0.000000 19.851307 39.634783 -14.571446 -5.000000 0.000000 -2.368600 3.712267 19.742395 3.553843 -0.000000 0.000000 0.000000
2.094993 99.149542 -17.981041 -11.905132 -25.547599 4.136159 -2.336825 -1.042619 1.348653 -2.806071 26.580997 2.894302 -3.992809 -21.682879 -11.400392 -0.000000 0.000000 0.000000 -3.355979 -8.520278 -7.160305 5.000000 0.000000 1.874515 -0.000000 0.000000 0.000000 13.604243 1.687502 -3.506241 0.266182 0.000000 -0.553526 -0.000000 0.000000 0.000000 14.938504 25.497564 0.546985 -5.000000 -0.000000 -5.000000 -11.647658 20.000000 1.764889 -0.000000 0.000000 0.000000 19.551042 39.361748 -14.370073 -5.000000 0.000000 -2.446754 3.774897 20.000000 3.055432 -0.000000 0.000000 0.000000
1.930610 99.135129 -18.044866 -11.698440 -25.242549 4.205197 -2.290822 -1.039293 1.316392 -2.772293 26.563114 2.914985 -3.991631 -21.702568 -11.471638 -0.000000 0.000000 0.000000 -3.006241 -8.708876 -7.378406 5.000000 0.000000 1.865861 -0.000000 0.000000 0.000000 13.612348 1.484881 -3.417822 0.925589 0.000000 -0.297277 -0.000000 0.000000 0.000000 14.694837 25.166367 0.594508 -5.000000 -0.000000 -5.000000 -11.561877 20.000000 1.869841 -0.000000 0.000000 0.000000 19.176252 39.063186 -14.152003 -5.000000 0.000000 -2.522241 3.807848 20.000000 2.673298 -0.000000 0.000000 0.000000
1.762804 99.110944 -18.116549 -11.453496 -24.926642 4.321290 -2.239774 -1.051337 1.275320 -2.737216 26.572645 2.943634 -3.999405 -21.751869 -11.563251 -0.000000 0.000000 0.000000 -2.495761 -8.865286 -7.580791 5.000000 0.000000 1.833569 -0.000000 0.000000 0.000000 13.591576 1.290554 -3.326503 1.498365 0.000000 -0.076729 -0.000000 0.000000 0.000000 14.435605 24.814569 0.643496 -5.000000 -0.000000 -5.000000 -11.504296 20.000000 1.951684 -0.000000 0.000000 0.000000 18.743471 38.748841 -13.925824 -5.000000 0.000000 -2.609696 3.821397 20.000000 2.280727 -0.000000 0.000000 0.000000
1.586259 99.084010 -18.189583 -11.185155 -24.607974 4.502846 -2.161102 -1.065196 1.213631 -2.706033 26.563056 2.964492 -3.999976 -21.782745 -11.656286 -0.000000 0.000000 0.000000 -1.900165 -8.981921 -7.751785 5.000000 0.000000 1.798729 -0.000000 0.000000 0.000000 13.546974 1.144579 -3.251437 1.870130 0.000000 0.067375 -0.000000 0.000000 0.000000 14.235071 24.434904 0.676306 -5.000000 -0.000000 -5.000000 -11.530909 20.000000 1.978026 -0.000000 0.000000 0.000000 18.315393 38.428752 -13.700745 -5.000000 0.000000 -2.670715 3.837926 20.000000 2.053067 -0.000000 0.000000 0.000000
1.402373 99.059766 -18.267936 -10.890486 -24.275642 4.725208 -2.090047 -1.101550 1.149961 -2.684296 26.549728 2.977340 -3.979047 -21.764411 -11.769584 -0.000000 0.000000 0.000000 -1.234420 -9.107768 -7.935457 5.000000 0.000000 1.750484 -0.000000 0.000000 0.000000 13.509917 1.013717 -3.184877 2.059386 0.000000 0.144379 -0.000000 0.000000 0.000000 14.081264 23.993055 0.694798 -5.000000 -0.000000 -5.000000 -11.635822 20.000000 1.935238 -0.000000 0.000000 0.000000 17.882113 38.100396 -13.474973 -5.000000 0.000000 -2.722531 3.871986 20.000000 1.823836 -0.000000 0.000000 0.000000
1.212962 99.038232 -18.352277 -10.564408 -23.915794 4.983109 -2.028062 -1.163466 1.084334 -2.675664 26.524216 2.977297 -3.939546 -21.701680 -11.893072 -0.000000 0.000000 0.000000 -0.634364 -9.263456 -8.136737 5.000000 0.000000 1.719313 -0.000000 0.000000 0.000000 13.486946 0.889491 -3.124457 2.001047 0.000000 0.125361 -0.000000 0.000000 0.000000 13.941100 23.486545 0.706509 -5.000000 -0.000000 -5.000000 -11.784659 20.000000 1.842255 -0.000000 0.000000 0.000000 17.431434 37.761499 -13.247127 -5.000000 0.000000 -2.773580 3.930140 20.000000 1.559768 -0.000000 0.000000 0.000000
